<svg xmlns="http://www.w3.org/2000/svg" viewBox="0 0 512 512">
  <rect width="512" height="512" rx="96" fill="#1a1a1a"/>
  <path d="M80,360 A200,200 0 0,1 432,360" fill="none" stroke="#f5f2ed" stroke-width="14"/>
  <!-- Color zones -->
  <path d="M100,320 A180,180 0 0,1 200,140" fill="none" stroke="#27ae60" stroke-width="18" opacity="0.25"/>
  <path d="M200,140 A180,180 0 0,1 340,120" fill="none" stroke="#b8860b" stroke-width="18" opacity="0.25"/>
  <path d="M340,120 A180,180 0 0,1 412,200" fill="none" stroke="#c0392b" stroke-width="18" opacity="0.35"/>
  <!-- Tick marks -->
  <line x1="108" y1="290" x2="125" y2="300" stroke="#f5f2ed" stroke-width="6" opacity="0.3"/>
  <line x1="140" y1="220" x2="155" y2="232" stroke="#f5f2ed" stroke-width="6" opacity="0.3"/>
  <line x1="200" y1="160" x2="210" y2="175" stroke="#f5f2ed" stroke-width="6" opacity="0.4"/>
  <line x1="270" y1="135" x2="270" y2="155" stroke="#f5f2ed" stroke-width="6" opacity="0.5"/>
  <line x1="340" y1="145" x2="332" y2="162" stroke="#c0392b" stroke-width="6" opacity="0.6"/>
  <line x1="395" y1="200" x2="380" y2="212" stroke="#c0392b" stroke-width="6"/>
  <!-- Needle -->
  <line x1="256" y1="360" x2="380" y2="195" stroke="#c0392b" stroke-width="12" stroke-linecap="round"/>
  <!-- Pivot -->
  <circle cx="256" cy="360" r="24" fill="#f5f2ed"/>
  <circle cx="256" cy="360" r="12" fill="#c0392b"/>
</svg>