<svg xmlns="http://www.w3.org/2000/svg" viewBox="0 0 64 64">
  <rect width="64" height="64" rx="8" fill="#1a1a1a"/>
  <circle cx="10" cy="32" r="2.5" fill="#f5f2ed"/>
  <circle cx="22" cy="16" r="2" fill="#f5f2ed"/>
  <circle cx="32" cy="10" r="3" fill="#c0392b"/>
  <circle cx="42" cy="16" r="2" fill="#f5f2ed"/>
  <circle cx="54" cy="32" r="2.5" fill="#f5f2ed"/>
  <circle cx="42" cy="48" r="2" fill="#f5f2ed"/>
  <circle cx="32" cy="54" r="1.5" fill="#f5f2ed"/>
  <circle cx="22" cy="48" r="2" fill="#f5f2ed"/>
  <circle cx="32" cy="32" r="4" fill="#c0392b"/>
  <circle cx="32" cy="32" r="6" fill="#c0392b" opacity="0.15"/>
  <line x1="10" y1="32" x2="22" y2="16" stroke="#f5f2ed" stroke-width="0.6" opacity="0.4"/>
  <line x1="22" y1="16" x2="32" y2="10" stroke="#f5f2ed" stroke-width="0.6" opacity="0.4"/>
  <line x1="32" y1="10" x2="42" y2="16" stroke="#f5f2ed" stroke-width="0.6" opacity="0.4"/>
  <line x1="42" y1="16" x2="54" y2="32" stroke="#f5f2ed" stroke-width="0.6" opacity="0.4"/>
  <line x1="54" y1="32" x2="42" y2="48" stroke="#f5f2ed" stroke-width="0.6" opacity="0.4"/>
  <line x1="42" y1="48" x2="32" y2="54" stroke="#f5f2ed" stroke-width="0.6" opacity="0.4"/>
  <line x1="32" y1="54" x2="22" y2="48" stroke="#f5f2ed" stroke-width="0.6" opacity="0.4"/>
  <line x1="22" y1="48" x2="10" y2="32" stroke="#f5f2ed" stroke-width="0.6" opacity="0.4"/>
  <line x1="22" y1="16" x2="32" y2="32" stroke="#c0392b" stroke-width="0.5" opacity="0.3"/>
  <line x1="42" y1="16" x2="32" y2="32" stroke="#c0392b" stroke-width="0.5" opacity="0.3"/>
  <line x1="22" y1="48" x2="32" y2="32" stroke="#c0392b" stroke-width="0.5" opacity="0.3"/>
  <line x1="42" y1="48" x2="32" y2="32" stroke="#c0392b" stroke-width="0.5" opacity="0.3"/>
</svg>