<svg xmlns="http://www.w3.org/2000/svg" viewBox="0 0 64 64">
  <rect width="64" height="64" rx="8" fill="#1a1a1a"/>
  <circle cx="32" cy="32" r="22" fill="none" stroke="#f5f2ed" stroke-width="1.5" stroke-dasharray="3 2"/>
  <circle cx="32" cy="32" r="15" fill="none" stroke="#c0392b" stroke-width="1" stroke-dasharray="2 2"/>
  <path d="M18,22 Q32,14 46,22" fill="none" stroke="#f5f2ed" stroke-width="1.5"/>
  <path d="M16,28 Q32,18 48,28" fill="none" stroke="#f5f2ed" stroke-width="1" opacity="0.5"/>
  <path d="M16,36 Q32,46 48,36" fill="none" stroke="#f5f2ed" stroke-width="1.5"/>
  <path d="M18,42 Q32,50 46,42" fill="none" stroke="#f5f2ed" stroke-width="1" opacity="0.5"/>
  <circle cx="32" cy="32" r="8" fill="#c0392b"/>
  <line x1="25" y1="30" x2="39" y2="30" stroke="#f5f2ed" stroke-width="0.8" opacity="0.5"/>
  <line x1="25" y1="32" x2="39" y2="32" stroke="#f5f2ed" stroke-width="0.8" opacity="0.7"/>
  <line x1="25" y1="34" x2="39" y2="34" stroke="#f5f2ed" stroke-width="0.8" opacity="0.5"/>
  <path d="M8,10 L8,6 L12,6" fill="none" stroke="#f5f2ed" stroke-width="1.5"/>
  <path d="M56,10 L56,6 L52,6" fill="none" stroke="#f5f2ed" stroke-width="1.5"/>
  <path d="M8,54 L8,58 L12,58" fill="none" stroke="#f5f2ed" stroke-width="1.5"/>
  <path d="M56,54 L56,58 L52,58" fill="none" stroke="#f5f2ed" stroke-width="1.5"/>
</svg>